# xmcd
#
# Track frame offsets: 
#        150
#        14696
#        25521
#        34364
#        45062
#        56920
#        68069
#        80654
#        90822
#        99512
#        113413
#        122595
#        134360
#        147472
#        158812
#        169005
#        178980
#        190822
#        200922
#        215829
#        227592
#        242281
#        253022
#        263535
#        274858
#        284394
#        294568
#        304525
#        315990
#        326095
#        335919
#
# Disc length: 4643 seconds
#
# Revision: 0
# Processed by: cddbd v1.4PL0 Copyright (c) Steve Scherf et al.
# Submitted via: ExactAudioCopy v0.95a3
#
DISCID=bf12211f
DTITLE=Feathers and Horton and Loudermilk - Rockabilly Country
DYEAR=2003
DGENRE=Rockabilly Country
TTITLE0=Charlie Feathers - A Man In Love
TTITLE1=John D. Loudermilk - Blue Train (Of The Heartbreak Line)
TTITLE2=Charlie Feathers - Seasons Of My Heart
TTITLE3=Johnny Horton - First train heading south
TTITLE4=Charlie Feathers - Pardon Me Mister
TTITLE5=Johnny Horton - I'm Ready If You're Willing
TTITLE6=Charlie Feathers - Defrost Your Heart
TTITLE7=Johnny Horton - Got the Bull by the Horns
TTITLE8=John D. Loudermilk - You Just Reap What You Sow
TTITLE9=Charlie Feathers - Mean Woman Blues
TTITLE10=Johnny Horton - Young Abe Lincoln
TTITLE11=John D. Loudermilk - Callin' Dr. Casey
TTITLE12=Charlie Feathers - (I Don't Care) If Tomorrow Never Comes
TTITLE13=Johnny Horton - Jim Bridger
TTITLE14=Charlie Feathers - Cootzie Coo
TTITLE15=John D. Loudermilk - Rhythm And Blues
TTITLE16=Johnny Horton - You Don't Move Me Baby Anymore
TTITLE17=Johnny Horton - Honky Tonk Man
TTITLE18=Charlie Feathers - A Long Time Ago
TTITLE19=John D. Loudermilk - The Little Wind-Up Doll
TTITLE20=Charlie Feathers - You're Right, I'm Left, She's Gone
TTITLE21=Johnny Horton - Honky Tonk Hardwood Floor
TTITLE22=John D. Loudermilk - Road Hog
TTITLE23=Johnny Horton - The Devil Made A Masterpiece
TTITLE24=Johnny Horton - I'm Coming Home
TTITLE25=Johnny Horton - The Woman I Need (Honky Tonk Mind)
TTITLE26=Johnny Horton - Tell My Baby I Love Her
TTITLE27=John D. Loudermilk - The Great Snowman
TTITLE28=Johnny Horton - Sugar Coated Baby
TTITLE29=Johnny Horton - Let's Take The Long Way Home
TTITLE30=John D. Loudermilk - The Wife
EXTD=
EXTT0=
EXTT1=
EXTT2=
EXTT3=
EXTT4=
EXTT5=
EXTT6=
EXTT7=
EXTT8=
EXTT9=
EXTT10=
EXTT11=
EXTT12=
EXTT13=
EXTT14=
EXTT15=
EXTT16=
EXTT17=
EXTT18=
EXTT19=
EXTT20=
EXTT21=
EXTT22=
EXTT23=
EXTT24=
EXTT25=
EXTT26=
EXTT27=
EXTT28=
EXTT29=
EXTT30=
PLAYORDER=
